PathFileType	4	(X/Y/Z)	/Users/itak/Documents/Research/Walk-IL/dataset/trc/00214_00009.trc
DataRate	CameraRate	NumFrames	NumMarkers	Units	OrigDataRate	OrigDataStartFrame	OrigNumFrames
100.000000	100.000000	4	54	mm	100.000000	315	505
Frame#	Time	RPSI			LPSI			L3			STRN			T10			C7			CLAV			RBAK			LBAK			LSHO			LUPA			LAEL			LAOL			LWTS			LWPS			LFRA			LIFD			LHPS			LHTS			RSHO			RUPA			RAEL			RAOL			RWPS			RFRA			RIFD			RHPS			RBHD			LFHD			RFHD			LBHD			LHIP			RHIP			RASI			LASI			LKNE			LTHI			LANK			LTIP			LTOE			LMT1			LMT5			LHEE			RKNE			RTHI			RANK			RTIP			RTOE			RMT5			RHEE			RWTS			RHTS			RMT1			*53			
		X1	Y1	Z1	X2	Y2	Z2	X3	Y3	Z3	X4	Y4	Z4	X5	Y5	Z5	X6	Y6	Z6	X7	Y7	Z7	X8	Y8	Z8	X9	Y9	Z9	X10	Y10	Z10	X11	Y11	Z11	X12	Y12	Z12	X13	Y13	Z13	X14	Y14	Z14	X15	Y15	Z15	X16	Y16	Z16	X17	Y17	Z17	X18	Y18	Z18	X19	Y19	Z19	X20	Y20	Z20	X21	Y21	Z21	X22	Y22	Z22	X23	Y23	Z23	X24	Y24	Z24	X25	Y25	Z25	X26	Y26	Z26	X27	Y27	Z27	X28	Y28	Z28	X29	Y29	Z29	X30	Y30	Z30	X31	Y31	Z31	X32	Y32	Z32	X33	Y33	Z33	X34	Y34	Z34	X35	Y35	Z35	X36	Y36	Z36	X37	Y37	Z37	X38	Y38	Z38	X39	Y39	Z39	X40	Y40	Z40	X41	Y41	Z41	X42	Y42	Z42	X43	Y43	Z43	X44	Y44	Z44	X45	Y45	Z45	X46	Y46	Z46	X47	Y47	Z47	X48	Y48	Z48	X49	Y49	Z49	X50	Y50	Z50	X51	Y51	Z51	X52	Y52	Z52	X53	Y53	Z53	X54	Y54	Z54	

316	3.15	-99.92481994628906	1000.891723632812	-182.8407440185547	-108.2217025756836	1001.570068359375	-302.3512878417969	-108.9001846313477	1086.030517578125	-249.88525390625	136.7104949951172	1270.866943359375	-279.5425109863281	-118.9379043579102	1211.75732421875	-237.3312225341797	-52.95048904418945	1472.887451171875	-251.3138732910156	111.2631149291992	1389.07275390625	-275.1271667480469	-117.4208831787109	1336.369140625	-164.1874542236328	-90.62782287597656	1435.005737304688	-356.9475708007812	-11.00747871398926	1432.459350585938	-426.7828369140625	-64.38191223144531	1314.4970703125	-494.3007202148438	-89.35189819335938	1104.4404296875	-510.223876953125	-143.15625	1100.734985351562	-441.7391052246094	-44.24603652954102	851.6624755859375	-476.3238525390625	-95.90742492675781	847.959716796875	-543.0201416015625	-95.06669616699219	996.8981323242188	-525.5022583007812	-103.3484191894531	664.93115234375	-477.17041015625	-107.7721862792969	758.4898681640625	-539.7037963867188	-53.44754791259766	749.3460083007812	-499.4035949707031	32.20073699951172	1433.87548828125	-92.66529083251953	24.59896469116211	1369.546875	-22.5188159942627	6.639259815216064	1089.702880859375	23.15573501586914	-40.72937774658203	1082.126708984375	-60.96708297729492	104.1242446899414	863.9813232421875	25.55175399780273	37.26064682006836	1021.386596679688	29.822509765625	176.2767333984375	691.96044921875	-56.94073104858398	151.3331146240234	760.5481567382812	17.79617691040039	-14.02186393737793	1624.52734375	-216.118896484375	185.7348022460938	1671.675537109375	-314.1505126953125	186.7263641357422	1669.84033203125	-214.2214660644531	28.52500343322754	1633.648681640625	-349.3162841796875	-8.551003456115723	943.129638671875	-438.7640380859375	-4.230539321899414	961.1485595703125	-74.22602844238281	92.58065795898438	1004.714904785156	-112.9587020874023	93.52590942382812	991.8946533203125	-391.2898864746094	227.0262603759766	516.4755249023438	-396.1158447265625	156.6488342285156	641.7393188476562	-428.4520874023438	242.2206726074219	30.58550453186035	-372.391845703125	235.7795104980469	280.9851989746094	-393.9432983398438	456.6744384765625	50.73799133300781	-326.6287231445312	392.0205993652344	42.94094467163086	-280.4423217773438	368.2118835449219	32.46043014526367	-392.0525512695312	182.8691253662109	40.00012969970703	-318.3774719238281	-96.79157257080078	491.5309753417969	-107.2598648071289	11.7644681930542	737.0676879882812	-71.62744903564453	-428.314208984375	105.4925994873047	-121.0974197387695	-154.5944366455078	381.0447998046875	-121.9248275756836	-246.5057525634766	39.97016143798828	-171.8292694091797	-335.4385986328125	46.42337417602539	-99.42787933349609	-479.7614135742188	146.1300964355469	-175.8063659667969	145.2475128173828	883.645263671875	-45.20098114013672	196.3352355957031	766.5989990234375	-38.54211807250977	-291.8894348144531	51.17114639282227	-212.4993896484375	nan	nan	nan	
317	3.16	-88.78584289550781	1001.491455078125	-184.6163177490234	-96.92800140380859	1002.475769042969	-304.0529479980469	-97.72748565673828	1087.219604492188	-251.5778045654297	147.6094970703125	1272.278198242188	-281.5806884765625	-107.8075332641602	1213.004638671875	-239.1391906738281	-42.208740234375	1474.171264648438	-253.2650146484375	122.0157089233398	1390.47216796875	-277.1627807617188	-106.4887084960938	1337.791870117188	-166.0122680664062	-80.02043914794922	1436.169189453125	-358.9122924804688	-0.3568993508815765	1433.689453125	-428.70703125	-52.72500991821289	1315.46728515625	-496.4452514648438	-74.84621429443359	1104.888916015625	-512.7008666992188	-129.3482055664062	1100.61279296875	-444.8218078613281	-26.47943687438965	852.8999633789062	-477.82373046875	-77.25469207763672	848.3362426757812	-545.1358642578125	-78.73361968994141	997.2588500976562	-527.8382568359375	-82.17781829833984	665.4026489257812	-479.1636962890625	-87.70487976074219	758.708740234375	-541.9154052734375	-33.47219848632812	749.9786987304688	-501.3196105957031	43.34067153930664	1435.139038085938	-94.68708038330078	35.63950729370117	1370.837890625	-24.55844688415527	15.51886177062988	1091.203247070312	20.91607093811035	-31.44348335266113	1084.025390625	-63.25190734863281	110.325439453125	864.4302978515625	24.48931503295898	45.26785659790039	1022.615966796875	27.91594505310059	180.8048248291016	691.3147583007812	-57.13909149169922	156.2562713623047	760.3533935546875	17.26172828674316	-3.413789510726929	1625.761474609375	-218.1326293945312	196.3262329101562	1673.05078125	-316.1774597167969	197.3331451416016	1671.24560546875	-216.2261047363281	39.16894149780273	1634.906494140625	-351.3316650390625	2.998947620391846	944.4344482421875	-440.34716796875	7.39804220199585	961.7109375	-76.20249176025391	103.8312072753906	1005.820495605469	-115.1269149780273	104.7352523803711	993.7938842773438	-393.4907836914062	237.1146697998047	516.96142578125	-396.8221740722656	167.5286865234375	642.8748168945312	-429.6085205078125	242.6676025390625	31.01032829284668	-372.2040405273438	241.6675415039062	281.1987915039062	-394.0420227050781	457.7497253417969	47.72277450561523	-325.5914001464844	392.5158386230469	41.09668350219727	-279.6201477050781	368.8630981445312	32.21863174438477	-391.8235473632812	183.4969635009766	40.43391036987305	-318.3049621582031	-80.64282989501953	490.7383422851562	-107.5021438598633	24.74404907226562	737.5563354492188	-73.92498779296875	-422.7663269042969	112.9485778808594	-120.904296875	-140.3739929199219	380.9463195800781	-121.5634689331055	-246.7054138183594	39.82159423828125	-171.6339569091797	-333.3893432617188	49.0250244140625	-98.90330505371094	-471.3104858398438	156.2586364746094	-175.9052581787109	152.1771850585938	883.3934936523438	-46.02972793579102	201.7588043212891	765.7127075195312	-38.77839660644531	-290.1641235351562	52.39934539794922	-212.3350067138672	nan	nan	nan	
318	3.17	-78.06690979003906	1002.228942871094	-186.5617828369141	-85.82955932617188	1003.552612304688	-305.9214477539062	-86.80010986328125	1088.628540039062	-253.5042724609375	158.4159240722656	1273.808715820312	-283.5535583496094	-96.75555419921875	1214.41455078125	-241.0187835693359	-31.56497573852539	1475.5947265625	-255.2148284912109	132.6820983886719	1391.989013671875	-279.14794921875	-95.70921325683594	1339.384887695312	-167.8699798583984	-69.45459747314453	1437.494384765625	-360.8969116210938	10.29593372344971	1435.100708007812	-430.6159057617188	-41.03950119018555	1316.653076171875	-498.6239624023438	-60.17034530639648	1105.586303710938	-515.2886352539062	-115.4542922973633	1100.678100585938	-448.1069030761719	-8.375433921813965	854.4785766601562	-479.3381042480469	-58.13154602050781	849.0078125	-547.3356323242188	-62.14538955688477	997.8759155273438	-530.2816162109375	-60.38933181762695	666.1683349609375	-481.2577514648438	-67.00618743896484	759.2341918945312	-544.2239379882812	-12.87080192565918	750.9300537109375	-503.3120422363281	54.35239028930664	1436.533203125	-96.69960784912109	46.57112121582031	1372.270385742188	-26.58532905578613	24.51357460021973	1092.874267578125	18.7896785736084	-22.18995666503906	1086.039794921875	-65.31423950195312	116.5966720581055	865.0885620117188	23.55210304260254	53.41029357910156	1024.041137695312	26.11762428283691	185.2277069091797	690.8317260742188	-57.22029113769531	161.2218627929688	760.3627319335938	16.8455638885498	7.163378238677979	1627.151123046875	-220.1014251708984	206.9218902587891	1674.501220703125	-318.1325073242188	207.9409637451172	1672.705688476562	-218.1498565673828	49.79961013793945	1636.314331054688	-353.2906494140625	14.37114524841309	945.9244995117188	-442.1054992675781	18.60030746459961	962.4432983398438	-78.32462310791016	114.7160873413086	1007.116882324219	-117.2265777587891	115.8113250732422	995.6856079101562	-395.6135559082031	246.3127746582031	517.0873413085938	-397.4144897460938	177.604736328125	643.5859375	-430.760009765625	243.0115814208984	31.37608528137207	-371.9830932617188	246.8665466308594	281.2681579589844	-394.0572814941406	458.5448913574219	45.3891716003418	-324.5655517578125	392.8348083496094	39.6971549987793	-278.7638854980469	369.3451538085938	32.25077056884766	-391.5338745117188	183.9617919921875	40.72894668579102	-318.1971740722656	-63.73038101196289	489.7818908691406	-107.4876708984375	37.69319534301758	738.2196044921875	-76.11177825927734	-416.2240905761719	121.0569915771484	-120.8610610961914	-125.1310195922852	380.7219543457031	-121.0089111328125	-246.3954162597656	39.55499267578125	-171.3853454589844	-330.8303527832031	52.26724243164062	-98.36060333251953	-461.5968017578125	166.8693084716797	-176.21142578125	159.0532073974609	883.284423828125	-46.81888961791992	207.1312561035156	764.99365234375	-38.96723556518555	-288.0202026367188	53.85704803466797	-212.1470336914062	nan	nan	nan	
319	3.18	-67.77244567871094	1003.099304199219	-188.6425476074219	-74.95261383056641	1004.832580566406	-307.9242248535156	-76.12812042236328	1090.211547851562	-255.6431274414062	169.1228179931641	1275.43212890625	-285.4273681640625	-85.84238433837891	1215.9521484375	-243.0135192871094	-21.03373336791992	1477.123168945312	-257.1772155761719	143.2505950927734	1393.593139648438	-281.0541076660156	-85.12631988525391	1341.094482421875	-169.8074493408203	-58.92644500732422	1438.949096679688	-362.9217834472656	20.96603393554688	1436.657104492188	-432.5081481933594	-29.30298233032227	1318.019897460938	-500.8371276855469	-45.34349822998047	1106.514770507812	-517.9840698242188	-101.5123672485352	1100.91552734375	-451.6014709472656	10.04209327697754	856.396728515625	-480.870849609375	-38.57515716552734	849.9651489257812	-549.6033935546875	-45.3338623046875	998.7357788085938	-532.8299560546875	-38.04049301147461	667.2216186523438	-483.4177856445312	-45.72329711914062	760.0592041015625	-546.6002807617188	8.285554885864258	752.2239379882812	-505.3336486816406	65.15334320068359	1438.033447265625	-98.68802642822266	57.29231262207031	1373.818969726562	-28.58696937561035	33.59109497070312	1094.681030273438	16.78835868835449	-12.99247550964355	1088.1259765625	-67.17876434326172	122.9862365722656	865.9483642578125	22.74135208129883	61.69239044189453	1025.635009765625	24.41067504882812	189.5867462158203	690.5142211914062	-57.19602966308594	166.2998504638672	760.5809936523438	16.54157257080078	17.69804382324219	1628.676879882812	-222.0223541259766	217.5104064941406	1675.993286132812	-320.0086975097656	218.5306091308594	1674.189331054688	-219.9882049560547	60.40070343017578	1637.845336914062	-355.191162109375	25.55828857421875	947.6433715820312	-444.0194702148438	29.2981128692627	963.296142578125	-80.56525421142578	125.2020111083984	1008.563171386719	-119.2203521728516	126.7366485595703	997.536865234375	-397.6167297363281	254.6115570068359	516.945068359375	-397.9590148925781	186.9060211181641	643.9920654296875	-431.8592529296875	243.2608642578125	31.66668510437012	-371.7610778808594	251.3726043701172	281.2188720703125	-394.0582885742188	459.1031188964844	43.65095520019531	-323.6482849121094	393.033203125	38.68462753295898	-277.9601135253906	369.6781921386719	32.42400360107422	-391.2407836914062	184.2770080566406	40.92260360717773	-318.0753479003906	-46.15119934082031	488.6670532226562	-107.2720794677734	50.56116104125977	739.022216796875	-78.16930389404297	-408.5722045898438	129.8392791748047	-120.9615936279297	-108.8885192871094	380.3773193359375	-120.3445510864258	-245.2658386230469	39.1842155456543	-171.0275573730469	-327.5399780273438	56.30371475219727	-97.85041046142578	-450.6233215332031	177.8875885009766	-176.7053375244141	165.8881530761719	883.316650390625	-47.58626937866211	212.4861145019531	764.4495239257812	-39.13803100585938	-285.244384765625	55.64736557006836	-211.9383697509766	nan	nan	nan	
